<svg width="36" height="36" viewBox="0 0 36 36" fill="none" xmlns="http://www.w3.org/2000/svg">
<path d="M34.5 4.50001C33.0636 5.51322 31.4732 6.28817 29.79 6.79501C28.8866 5.75627 27.686 5.02005 26.3506 4.6859C25.0151 4.35175 23.6092 4.4358 22.3231 4.92669C21.037 5.41757 19.9327 6.29161 19.1595 7.43058C18.3863 8.56956 17.9815 9.91851 18 11.295V12.795C15.364 12.8634 12.7519 12.2787 10.3965 11.0932C8.04112 9.90763 6.01548 8.15796 4.5 6.00001C4.5 6.00001 -1.5 19.5 12 25.5C8.91079 27.597 5.23074 28.6484 1.5 28.5C15 36 31.5 28.5 31.5 11.25C31.4986 10.8322 31.4584 10.4154 31.38 10.005C32.9109 8.49525 33.9912 6.58908 34.5 4.50001V4.50001Z" stroke="black" stroke-width="3" stroke-linecap="round" stroke-linejoin="round"/>
</svg>
