<svg width="36" height="36" viewBox="0 0 36 36" fill="none" xmlns="http://www.w3.org/2000/svg">
<path d="M33.81 9.63C33.6318 8.91811 33.2689 8.26586 32.758 7.73911C32.247 7.21236 31.6061 6.82978 30.9 6.63C28.32 6 18 6 18 6C18 6 7.68 6 5.1 6.69C4.39387 6.88978 3.75297 7.27236 3.24202 7.79911C2.73108 8.32586 2.36819 8.97811 2.19 9.69C1.71782 12.3083 1.48686 14.9645 1.5 17.625C1.48317 20.3056 1.71415 22.982 2.19 25.62C2.38644 26.3098 2.75746 26.9372 3.26722 27.4417C3.77697 27.9462 4.40823 28.3107 5.1 28.5C7.68 29.19 18 29.19 18 29.19C18 29.19 28.32 29.19 30.9 28.5C31.6061 28.3002 32.247 27.9176 32.758 27.3909C33.2689 26.8641 33.6318 26.2119 33.81 25.5C34.2785 22.9014 34.5095 20.2655 34.5 17.625C34.5168 14.9444 34.2859 12.268 33.81 9.63V9.63Z" stroke="black" stroke-width="3" stroke-linecap="round" stroke-linejoin="round"/>
<path d="M14.625 22.53L23.25 17.625L14.625 12.72V22.53Z" stroke="black" stroke-width="3" stroke-linecap="round" stroke-linejoin="round"/>
</svg>
